Coordinates
version=1
nRows=21
nColumns=12
inDegrees=yes

Units are S.I. units (second, meters, Newtons, ...)
Angles are in degrees

endheader
time	SC_y	SC_z	SC_x	AC_y	AC_z	AC_x	GH_y	GH_z	GH_yy	EL_x	PS_y
       0.0              -17.96          28.67          38.59          51.32          2.383          4.045          22.29         -10.75         -132.7          122.8          108.9
  0.007897              -17.96          28.66          38.58          51.32          2.382          4.047          22.27         -10.74         -132.6          122.8          108.9
   0.01579              -17.97          28.66          38.57          51.32           2.38          4.048          22.25         -10.73         -132.6          122.8          108.9
   0.02369              -17.97          28.66          38.57          51.32          2.378           4.05          22.22         -10.72         -132.6          122.8          108.9
   0.03159              -17.97          28.65          38.56          51.32          2.377          4.052           22.2          -10.7         -132.5          122.7          108.9
   0.03949              -17.98          28.65          38.55          51.32          2.375          4.054          22.17         -10.69         -132.5          122.7          108.9
   0.04738              -17.98          28.65          38.55          51.32          2.373          4.056          22.14         -10.67         -132.5          122.7          108.9
   0.05528              -17.99          28.64          38.54          51.32          2.371          4.058           22.1         -10.66         -132.4          122.7          108.9
   0.06318              -17.99          28.64          38.53          51.32          2.369          4.061          22.07         -10.64         -132.4          122.7          108.9
   0.07107               -18.0          28.63          38.52          51.32          2.367          4.064          22.03         -10.62         -132.3          122.6          108.9
   0.07897               -18.0          28.63          38.51          51.32          2.364          4.066          21.99          -10.6         -132.3          122.6          108.9
   0.08687              -18.01          28.62           38.5          51.32          2.362           4.07          21.95         -10.57         -132.2          122.6          108.9
   0.09476              -18.01          28.61          38.49          51.33          2.359          4.073           21.9         -10.55         -132.2          122.6          108.9
    0.1027              -18.02          28.61          38.48          51.33          2.356          4.076          21.85         -10.52         -132.1          122.6          108.9
    0.1106              -18.03           28.6          38.47          51.33          2.352           4.08           21.8          -10.5         -132.0          122.5          108.9
    0.1185              -18.04          28.59          38.45          51.33          2.348          4.084          21.74         -10.47         -131.9          122.5          108.9
    0.1264              -18.05          28.58          38.44          51.33          2.344          4.089          21.67         -10.43         -131.9          122.5          108.9
    0.1343              -18.06          28.57          38.42          51.33           2.34          4.094           21.6          -10.4         -131.8          122.4          108.9
    0.1421              -18.07          28.56           38.4          51.34          2.335          4.099          21.53         -10.36         -131.7          122.4          108.9
      0.15              -18.08          28.55          38.38          51.34           2.33          4.105          21.45         -10.31         -131.6          122.3          108.9
    0.1579              -18.09          28.54          38.36          51.34          2.325          4.112          21.35         -10.27         -131.4          122.3          108.9
